<svg width="673" height="250" viewBox="0 0 673 250" fill="none" xmlns="http://www.w3.org/2000/svg">
<rect width="673" height="250" fill="#F5F5F5"/>
<rect width="673" height="250" rx="21" fill="#FFF500"/>
<path d="M182.136 119H147.227L162.682 25.9091H196.545C206 25.9091 213.879 27.8333 220.182 31.6818C226.515 35.5 230.985 40.9848 233.591 48.1364C236.227 55.2576 236.727 63.7424 235.091 73.5909C233.515 83.1061 230.348 91.2576 225.591 98.0455C220.864 104.833 214.803 110.03 207.409 113.636C200.015 117.212 191.591 119 182.136 119ZM172.864 99.8182H183.545C188.758 99.8182 193.364 98.8788 197.364 97C201.394 95.0909 204.727 92.0455 207.364 87.8636C210 83.6515 211.879 78.1212 213 71.2727C214.091 64.7273 214.045 59.5606 212.864 55.7727C211.712 51.9545 209.47 49.2273 206.136 47.5909C202.833 45.9242 198.515 45.0909 193.182 45.0909H182L172.864 99.8182ZM273.182 120.318C265.879 120.318 259.818 118.879 255 116C250.212 113.091 246.848 108.955 244.909 103.591C242.97 98.197 242.621 91.7879 243.864 84.3636C245.076 77.1515 247.545 70.8485 251.273 65.4545C255.03 60.0303 259.758 55.8182 265.455 52.8182C271.152 49.7879 277.5 48.2727 284.5 48.2727C289.47 48.2727 293.879 49.0455 297.727 50.5909C301.576 52.1364 304.758 54.4394 307.273 57.5C309.788 60.5303 311.5 64.2576 312.409 68.6818C313.318 73.1061 313.288 78.1818 312.318 83.9091L311.455 89.4545H250.818L252.864 76.5455H292.864C293.227 74.1818 293.03 72.0758 292.273 70.2273C291.515 68.3788 290.288 66.9394 288.591 65.9091C286.924 64.8485 284.879 64.3182 282.455 64.3182C280 64.3182 277.697 64.8939 275.545 66.0455C273.424 67.1667 271.621 68.6818 270.136 70.5909C268.652 72.5 267.682 74.6515 267.227 77.0455L264.818 90.2727C264.333 93.2121 264.47 95.7273 265.227 97.8182C265.985 99.9091 267.288 101.515 269.136 102.636C270.985 103.727 273.364 104.273 276.273 104.273C278.212 104.273 280.03 104.015 281.727 103.5C283.424 102.955 284.939 102.152 286.273 101.091C287.636 100 288.742 98.6818 289.591 97.1364L309.864 97.7273C308.227 102.303 305.697 106.288 302.273 109.682C298.848 113.045 294.667 115.667 289.727 117.545C284.818 119.394 279.303 120.318 273.182 120.318ZM395.341 49.1818L359.75 119H334.295L322.023 49.1818H344.614L349.523 97.2727H350.25L371.114 49.1818H395.341Z" fill="black"/>
<path d="M131.909 219L134.091 206.182L189.636 144.182H144.318L147.409 125.909H221.045L218.909 138.727L163.273 200.727H208.636L205.545 219H131.909ZM251.898 220.318C244.534 220.318 238.458 218.803 233.67 215.773C228.913 212.742 225.564 208.515 223.625 203.091C221.686 197.667 221.307 191.364 222.489 184.182C223.67 177.03 226.11 170.758 229.807 165.364C233.504 159.97 238.231 155.773 243.989 152.773C249.746 149.773 256.277 148.273 263.58 148.273C270.913 148.273 276.958 149.788 281.716 152.818C286.504 155.848 289.867 160.076 291.807 165.5C293.777 170.924 294.17 177.242 292.989 184.455C291.807 191.606 289.352 197.879 285.625 203.273C281.898 208.636 277.17 212.818 271.443 215.818C265.716 218.818 259.201 220.318 251.898 220.318ZM254.398 203.545C257.125 203.545 259.564 202.727 261.716 201.091C263.898 199.455 265.731 197.167 267.216 194.227C268.701 191.288 269.761 187.879 270.398 184C271.034 180.182 271.095 176.833 270.58 173.955C270.095 171.045 269.064 168.788 267.489 167.182C265.913 165.545 263.777 164.727 261.08 164.727C258.352 164.727 255.898 165.561 253.716 167.227C251.534 168.864 249.701 171.152 248.216 174.091C246.761 177 245.716 180.409 245.08 184.318C244.443 188.136 244.367 191.485 244.852 194.364C245.337 197.242 246.383 199.5 247.989 201.136C249.595 202.742 251.731 203.545 254.398 203.545ZM327.602 179.182L320.966 219H298.739L310.375 149.182H331.511L329.42 162H330.193C332.375 157.727 335.542 154.379 339.693 151.955C343.845 149.5 348.511 148.273 353.693 148.273C358.572 148.273 362.648 149.364 365.92 151.545C369.193 153.727 371.511 156.788 372.875 160.727C374.239 164.636 374.466 169.227 373.557 174.5L366.102 219H343.875L350.557 178.864C351.223 175.015 350.754 172 349.148 169.818C347.572 167.606 344.996 166.5 341.42 166.5C339.087 166.5 336.951 167.015 335.011 168.045C333.102 169.045 331.496 170.485 330.193 172.364C328.92 174.242 328.057 176.515 327.602 179.182ZM412.182 220.318C404.879 220.318 398.818 218.879 394 216C389.212 213.091 385.848 208.955 383.909 203.591C381.97 198.197 381.621 191.788 382.864 184.364C384.076 177.152 386.545 170.848 390.273 165.455C394.03 160.03 398.758 155.818 404.455 152.818C410.152 149.788 416.5 148.273 423.5 148.273C428.47 148.273 432.879 149.045 436.727 150.591C440.576 152.136 443.758 154.439 446.273 157.5C448.788 160.53 450.5 164.258 451.409 168.682C452.318 173.106 452.288 178.182 451.318 183.909L450.455 189.455H389.818L391.864 176.545H431.864C432.227 174.182 432.03 172.076 431.273 170.227C430.515 168.379 429.288 166.939 427.591 165.909C425.924 164.848 423.879 164.318 421.455 164.318C419 164.318 416.697 164.894 414.545 166.045C412.424 167.167 410.621 168.682 409.136 170.591C407.652 172.5 406.682 174.652 406.227 177.045L403.818 190.273C403.333 193.212 403.47 195.727 404.227 197.818C404.985 199.909 406.288 201.515 408.136 202.636C409.985 203.727 412.364 204.273 415.273 204.273C417.212 204.273 419.03 204.015 420.727 203.5C422.424 202.955 423.939 202.152 425.273 201.091C426.636 200 427.742 198.682 428.591 197.136L448.864 197.727C447.227 202.303 444.697 206.288 441.273 209.682C437.848 213.045 433.667 215.667 428.727 217.545C423.818 219.394 418.303 220.318 412.182 220.318Z" fill="black"/>
<path d="M106.76 43.1741L94.5838 107.856L44.6559 64.9699L106.76 43.1741Z" fill="white"/>
<mask id="path-5-outside-1_0_1" maskUnits="userSpaceOnUse" x="457" y="33" width="179" height="177" fill="black">
<rect fill="white" x="457" y="33" width="179" height="177"/>
<path d="M511.955 168.091L561.818 93.7273L562 93.1364H518.091L521.045 75H588.227L585.227 93.2727L535.091 168.091H511.955ZM533.545 208.909C523.758 208.909 514.682 207.409 506.318 204.409C497.985 201.409 490.576 197.182 484.091 191.727C477.606 186.303 472.258 179.879 468.045 172.455C463.864 165.061 461.015 156.924 459.5 148.045C457.985 139.167 458.03 129.818 459.636 120C461.212 110.485 464.152 101.439 468.455 92.8636C472.788 84.2576 478.182 76.3788 484.636 69.2273C491.121 62.0455 498.394 55.8333 506.455 50.5909C514.515 45.3182 523.091 41.2424 532.182 38.3636C541.303 35.4545 550.621 34 560.136 34C569.924 34 579 35.5 587.364 38.5C595.727 41.5 603.152 45.7273 609.636 51.1818C616.121 56.6061 621.455 63.0303 625.636 70.4545C629.848 77.8485 632.712 85.9848 634.227 94.8636C635.742 103.742 635.682 113.091 634.045 122.909C632.47 132.424 629.53 141.485 625.227 150.091C620.924 158.667 615.53 166.53 609.045 173.682C602.591 180.864 595.333 187.076 587.273 192.318C579.212 197.591 570.621 201.667 561.5 204.545C552.409 207.455 543.091 208.909 533.545 208.909ZM533.545 195.182C541.758 195.182 549.788 193.924 557.636 191.409C565.485 188.894 572.894 185.333 579.864 180.727C586.864 176.152 593.167 170.773 598.773 164.591C604.409 158.379 609.091 151.561 612.818 144.136C616.576 136.682 619.136 128.864 620.5 120.682C621.833 112.53 621.909 104.803 620.727 97.5C619.545 90.1667 617.242 83.4697 613.818 77.4091C610.424 71.3485 606.076 66.1061 600.773 61.6818C595.5 57.2273 589.424 53.7879 582.545 51.3636C575.697 48.9394 568.227 47.7273 560.136 47.7273C551.955 47.7273 543.924 48.9848 536.045 51.5C528.197 54.0151 520.788 57.5758 513.818 62.1818C506.848 66.7576 500.545 72.1515 494.909 78.3636C489.303 84.5455 484.621 91.3636 480.864 98.8182C477.106 106.242 474.545 114.061 473.182 122.273C471.848 130.394 471.788 138.121 473 145.455C474.212 152.758 476.515 159.439 479.909 165.5C483.303 171.561 487.636 176.803 492.909 181.227C498.212 185.682 504.288 189.121 511.136 191.545C517.985 193.97 525.455 195.182 533.545 195.182Z"/>
</mask>
<path d="M511.955 168.091L561.818 93.7273L562 93.1364H518.091L521.045 75H588.227L585.227 93.2727L535.091 168.091H511.955ZM533.545 208.909C523.758 208.909 514.682 207.409 506.318 204.409C497.985 201.409 490.576 197.182 484.091 191.727C477.606 186.303 472.258 179.879 468.045 172.455C463.864 165.061 461.015 156.924 459.5 148.045C457.985 139.167 458.03 129.818 459.636 120C461.212 110.485 464.152 101.439 468.455 92.8636C472.788 84.2576 478.182 76.3788 484.636 69.2273C491.121 62.0455 498.394 55.8333 506.455 50.5909C514.515 45.3182 523.091 41.2424 532.182 38.3636C541.303 35.4545 550.621 34 560.136 34C569.924 34 579 35.5 587.364 38.5C595.727 41.5 603.152 45.7273 609.636 51.1818C616.121 56.6061 621.455 63.0303 625.636 70.4545C629.848 77.8485 632.712 85.9848 634.227 94.8636C635.742 103.742 635.682 113.091 634.045 122.909C632.47 132.424 629.53 141.485 625.227 150.091C620.924 158.667 615.53 166.53 609.045 173.682C602.591 180.864 595.333 187.076 587.273 192.318C579.212 197.591 570.621 201.667 561.5 204.545C552.409 207.455 543.091 208.909 533.545 208.909ZM533.545 195.182C541.758 195.182 549.788 193.924 557.636 191.409C565.485 188.894 572.894 185.333 579.864 180.727C586.864 176.152 593.167 170.773 598.773 164.591C604.409 158.379 609.091 151.561 612.818 144.136C616.576 136.682 619.136 128.864 620.5 120.682C621.833 112.53 621.909 104.803 620.727 97.5C619.545 90.1667 617.242 83.4697 613.818 77.4091C610.424 71.3485 606.076 66.1061 600.773 61.6818C595.5 57.2273 589.424 53.7879 582.545 51.3636C575.697 48.9394 568.227 47.7273 560.136 47.7273C551.955 47.7273 543.924 48.9848 536.045 51.5C528.197 54.0151 520.788 57.5758 513.818 62.1818C506.848 66.7576 500.545 72.1515 494.909 78.3636C489.303 84.5455 484.621 91.3636 480.864 98.8182C477.106 106.242 474.545 114.061 473.182 122.273C471.848 130.394 471.788 138.121 473 145.455C474.212 152.758 476.515 159.439 479.909 165.5C483.303 171.561 487.636 176.803 492.909 181.227C498.212 185.682 504.288 189.121 511.136 191.545C517.985 193.97 525.455 195.182 533.545 195.182Z" fill="white"/>
<path d="M511.955 168.091L511.539 167.812L511.017 168.591H511.955V168.091ZM561.818 93.7273L562.233 94.0057L562.274 93.9446L562.296 93.8743L561.818 93.7273ZM562 93.1364L562.478 93.2834L562.677 92.6364H562V93.1364ZM518.091 93.1364L517.597 93.056L517.503 93.6364H518.091V93.1364ZM521.045 75V74.5H520.62L520.552 74.9196L521.045 75ZM588.227 75L588.721 75.081L588.816 74.5H588.227V75ZM585.227 93.2727L585.643 93.5511L585.703 93.4609L585.721 93.3537L585.227 93.2727ZM535.091 168.091V168.591H535.358L535.506 168.369L535.091 168.091ZM506.318 204.409L506.149 204.88L506.149 204.88L506.318 204.409ZM484.091 191.727L484.413 191.345L484.412 191.344L484.091 191.727ZM468.045 172.455L467.61 172.701L467.611 172.701L468.045 172.455ZM459.5 148.045L459.007 148.13L459.5 148.045ZM459.636 120L459.143 119.918L459.143 119.919L459.636 120ZM468.455 92.8636L468.008 92.6388L468.008 92.6394L468.455 92.8636ZM484.636 69.2273L484.265 68.8922L484.265 68.8923L484.636 69.2273ZM506.455 50.5909L506.727 51.0101L506.728 51.0093L506.455 50.5909ZM532.182 38.3636L532.333 38.8403L532.334 38.84L532.182 38.3636ZM587.364 38.5L587.532 38.0294L587.532 38.0294L587.364 38.5ZM609.636 51.1818L609.315 51.5645L609.316 51.5653L609.636 51.1818ZM625.636 70.4545L625.201 70.6999L625.202 70.702L625.636 70.4545ZM634.227 94.8636L634.72 94.7795L634.72 94.7795L634.227 94.8636ZM634.045 122.909L633.552 122.827L633.552 122.827L634.045 122.909ZM625.227 150.091L625.674 150.315L625.674 150.315L625.227 150.091ZM609.045 173.682L608.675 173.346L608.674 173.348L609.045 173.682ZM587.273 192.318L587 191.899L586.999 191.9L587.273 192.318ZM561.5 204.545L561.35 204.069L561.348 204.069L561.5 204.545ZM579.864 180.727L579.59 180.309L579.588 180.31L579.864 180.727ZM598.773 164.591L598.402 164.255L598.402 164.255L598.773 164.591ZM612.818 144.136L612.372 143.911L612.371 143.912L612.818 144.136ZM620.5 120.682L620.993 120.764L620.993 120.763L620.5 120.682ZM620.727 97.5L620.234 97.5796L620.234 97.5799L620.727 97.5ZM613.818 77.4091L613.382 77.6534L613.383 77.655L613.818 77.4091ZM600.773 61.6818L600.45 62.0638L600.452 62.0657L600.773 61.6818ZM582.545 51.3636L582.379 51.835L582.379 51.8352L582.545 51.3636ZM536.045 51.5L535.893 51.0237L535.893 51.0239L536.045 51.5ZM513.818 62.1818L514.093 62.5998L514.094 62.599L513.818 62.1818ZM494.909 78.3636L494.539 78.0277L494.539 78.0277L494.909 78.3636ZM480.864 98.8182L481.31 99.044L481.31 99.0432L480.864 98.8182ZM473.182 122.273L472.689 122.191L472.688 122.192L473.182 122.273ZM473 145.455L472.507 145.536L472.507 145.536L473 145.455ZM479.909 165.5L480.345 165.256L480.345 165.256L479.909 165.5ZM492.909 181.227L493.231 180.844L493.23 180.844L492.909 181.227ZM511.136 191.545L510.97 192.017L510.97 192.017L511.136 191.545ZM512.37 168.369L562.233 94.0057L561.403 93.4488L511.539 167.812L512.37 168.369ZM562.296 93.8743L562.478 93.2834L561.522 92.9893L561.34 93.5802L562.296 93.8743ZM562 92.6364H518.091V93.6364H562V92.6364ZM518.584 93.2168L521.539 75.0804L520.552 74.9196L517.597 93.056L518.584 93.2168ZM521.045 75.5H588.227V74.5H521.045V75.5ZM587.734 74.919L584.734 93.1917L585.721 93.3537L588.721 75.081L587.734 74.919ZM584.812 92.9944L534.676 167.813L535.506 168.369L585.643 93.5511L584.812 92.9944ZM535.091 167.591H511.955V168.591H535.091V167.591ZM533.545 208.409C523.809 208.409 514.791 206.917 506.487 203.938L506.149 204.88C514.572 207.901 523.706 209.409 533.545 209.409V208.409ZM506.488 203.939C498.207 200.958 490.85 196.759 484.413 191.345L483.769 192.11C490.301 197.604 497.762 201.86 506.149 204.88L506.488 203.939ZM484.412 191.344C477.973 185.958 472.663 179.581 468.48 172.208L467.611 172.701C471.852 180.177 477.239 186.648 483.77 192.111L484.412 191.344ZM468.481 172.208C464.329 164.868 461.499 156.787 459.993 147.961L459.007 148.13C460.531 157.062 463.398 165.254 467.61 172.701L468.481 172.208ZM459.993 147.961C458.488 139.142 458.532 129.85 460.13 120.081L459.143 119.919C457.529 129.786 457.482 139.191 459.007 148.13L459.993 147.961ZM460.13 120.082C461.697 110.616 464.621 101.618 468.901 93.0879L468.008 92.6394C463.682 101.26 460.727 110.354 459.143 119.918L460.13 120.082ZM468.901 93.0885C473.214 84.5223 478.583 76.6806 485.008 69.5623L484.265 68.8923C477.781 76.077 472.361 83.9928 468.008 92.6388L468.901 93.0885ZM485.007 69.5624C491.463 62.4125 498.703 56.2287 506.727 51.0101L506.182 50.1718C498.085 55.438 490.779 61.6784 484.265 68.8922L485.007 69.5624ZM506.728 51.0093C514.751 45.7613 523.286 41.7052 532.333 38.8403L532.031 37.887C522.896 40.7796 514.279 44.8751 506.181 50.1725L506.728 51.0093ZM532.334 38.84C541.406 35.9465 550.673 34.5 560.136 34.5V33.5C550.569 33.5 541.2 34.9626 532.03 37.8873L532.334 38.84ZM560.136 34.5C569.873 34.5 578.891 35.9919 587.195 38.9706L587.532 38.0294C579.109 35.0081 569.976 33.5 560.136 33.5V34.5ZM587.195 38.9706C595.505 41.9516 602.877 46.1499 609.315 51.5645L609.958 50.7992C603.426 45.3046 595.949 41.0484 587.532 38.0294L587.195 38.9706ZM609.316 51.5653C615.754 56.9505 621.048 63.3279 625.201 70.6999L626.072 70.2092C621.861 62.7327 616.489 56.2616 609.957 50.7983L609.316 51.5653ZM625.202 70.702C629.384 78.0424 632.228 86.123 633.734 94.9477L634.72 94.7795C633.196 85.8467 630.313 77.6545 626.071 70.2071L625.202 70.702ZM633.734 94.9477C635.239 103.766 635.18 113.058 633.552 122.827L634.539 122.991C636.183 113.124 636.246 103.719 634.72 94.7795L633.734 94.9477ZM633.552 122.827C631.985 132.293 629.061 141.306 624.78 149.867L625.674 150.315C630 141.664 632.955 132.555 634.539 122.991L633.552 122.827ZM624.78 149.867C620.498 158.402 615.13 166.228 608.675 173.346L609.416 174.018C615.931 166.833 621.351 158.932 625.674 150.315L624.78 149.867ZM608.674 173.348C602.248 180.497 595.024 186.681 587 191.899L587.545 192.737C595.643 187.471 602.934 181.23 609.417 174.016L608.674 173.348ZM586.999 191.9C578.976 197.148 570.427 201.204 561.35 204.069L561.65 205.022C570.816 202.13 579.448 198.034 587.546 192.737L586.999 191.9ZM561.348 204.069C552.306 206.963 543.039 208.409 533.545 208.409V209.409C543.143 209.409 552.512 207.947 561.652 205.022L561.348 204.069ZM533.545 195.682C541.81 195.682 549.891 194.416 557.789 191.885L557.484 190.933C549.684 193.432 541.706 194.682 533.545 194.682V195.682ZM557.789 191.885C565.682 189.356 573.132 185.775 580.139 181.144L579.588 180.31C572.656 184.891 565.288 188.432 557.484 190.933L557.789 191.885ZM580.137 181.146C587.173 176.547 593.508 171.14 599.143 164.927L598.402 164.255C592.825 170.405 586.554 175.756 579.59 180.309L580.137 181.146ZM599.143 164.927C604.81 158.682 609.517 151.826 613.265 144.361L612.371 143.912C608.665 151.295 604.009 158.076 598.402 164.255L599.143 164.927ZM613.265 144.361C617.045 136.862 619.621 128.996 620.993 120.764L620.007 120.6C618.652 128.731 616.107 136.501 612.372 143.911L613.265 144.361ZM620.993 120.763C622.334 112.564 622.412 104.782 621.221 97.4201L620.234 97.5799C621.406 104.824 621.332 112.497 620.007 120.601L620.993 120.763ZM621.221 97.4204C620.03 90.0326 617.709 83.2787 614.254 77.1631L613.383 77.655C616.776 83.6607 619.061 90.3008 620.234 97.5796L621.221 97.4204ZM614.254 77.1648C610.831 71.0513 606.443 65.7614 601.093 61.2979L600.452 62.0657C605.708 66.4507 610.018 71.6457 613.382 77.6534L614.254 77.1648ZM601.095 61.2999C595.774 56.804 589.644 53.3353 582.712 50.8921L582.379 51.8352C589.204 54.2405 595.226 57.6505 600.45 62.0638L601.095 61.2999ZM582.712 50.8923C575.805 48.4471 568.278 47.2273 560.136 47.2273V48.2273C568.177 48.2273 575.589 49.4317 582.379 51.835L582.712 50.8923ZM560.136 47.2273C551.902 47.2273 543.821 48.493 535.893 51.0237L536.198 51.9763C544.028 49.4767 552.007 48.2273 560.136 48.2273V47.2273ZM535.893 51.0239C528 53.5531 520.55 57.1338 513.543 61.7647L514.094 62.599C521.026 58.0177 528.394 54.4772 536.198 51.9761L535.893 51.0239ZM513.544 61.7638C506.539 66.3629 500.203 71.7845 494.539 78.0277L495.279 78.6996C500.888 72.5186 507.158 67.1522 514.093 62.5998L513.544 61.7638ZM494.539 78.0277C488.902 84.2429 484.195 91.0984 480.417 98.5931L481.31 99.0432C485.047 91.6289 489.704 84.848 495.279 78.6995L494.539 78.0277ZM480.418 98.5924C476.637 106.062 474.061 113.929 472.689 122.191L473.675 122.355C475.03 114.193 477.575 106.423 481.31 99.044L480.418 98.5924ZM472.688 122.192C471.347 130.361 471.285 138.143 472.507 145.536L473.493 145.373C472.291 138.099 472.35 130.427 473.675 122.354L472.688 122.192ZM472.507 145.536C473.728 152.893 476.049 159.63 479.473 165.744L480.345 165.256C476.981 159.249 474.697 152.622 473.493 145.373L472.507 145.536ZM479.473 165.744C482.896 171.857 487.268 177.147 492.588 181.61L493.23 180.844C488.005 176.459 483.71 171.264 480.345 165.256L479.473 165.744ZM492.587 181.61C497.939 186.105 504.067 189.574 510.97 192.017L511.303 191.074C504.508 188.669 498.486 185.259 493.231 180.844L492.587 181.61ZM510.97 192.017C517.877 194.462 525.404 195.682 533.545 195.682V194.682C525.505 194.682 518.092 193.477 511.303 191.074L510.97 192.017Z" fill="#E4D6D6" mask="url(#path-5-outside-1_0_1)"/>
</svg>
